ply
format ascii 1.0
comment Created by Open3D
element vertex 223
property double x
property double y
property double z
property double nx
property double ny
property double nz
element face 99
property list uchar uint vertex_indices
end_header
-0.191209 0.228366 0.596167 -0.17774 0.558182 -0.810458
-0.019276 -0.30185 0.255294 -0.0661734 0.671575 -0.737976
0.0907983 -0.310074 0.237283 -0.0664587 0.67061 -0.738827
0.044667 -0.131754 0.405 -0.0590876 0.650828 -0.756922
-0.0696699 0.118357 0.493479 -0.433779 0.310658 -0.84577
-0.119344 0.199529 0.555 -0.636502 0.239184 -0.733251
-0.0440448 0.109886 0.478002 -0.371354 0.299119 -0.87899
-0.131302 0.000472136 0.443773 -0.297231 0.226456 -0.927562
0.0677255 -0.24707 0.296558 -0.0704974 0.667727 -0.741061
0.143834 -0.158814 0.369624 -0.0726914 0.670421 -0.738412
0.011586 -0.121762 0.415498 -0.058907 0.662754 -0.746516
-0.100877 -0.15162 0.396718 -0.0581567 0.671484 -0.738733
-0.0842496 -0.231588 0.323366 -0.0623851 0.674174 -0.735933
-0.09095 0.0846464 0.47609 -0.210688 0.525429 -0.824339
-0.124164 -0.028578 0.443332 -0.214015 -0.189615 -0.958251
-0.079173 -0.030833 0.435 -0.178845 -0.269851 -0.946147
-0.117047 0.17381 0.541589 -0.26962 0.498265 -0.824037
0.160832 0.0300327 0.40475 0.0944464 -0.196963 -0.975851
-0.119756 0.0361292 0.455474 -0.274544 0.458951 -0.844979
-0.16504 0.098817 0.505287 -0.21983 0.501052 -0.837031
0.0867223 -0.00264196 0.412495 0.0575175 -0.471236 -0.88013
-0.0116778 0.198857 0.520049 -0.106784 0.60149 -0.791711
0.151513 -0.0359008 0.457088 0.0750668 -0.572622 -0.816376
-0.00603419 -0.225735 0.322085 -0.0605045 0.673494 -0.736712
0.202461 -0.284164 0.250313 -0.0656065 0.682934 -0.727528
0.0886346 -0.111526 0.41761 -0.068362 0.665341 -0.743403
-0.026987 -0.191855 0.355857 -0.0452885 0.65672 -0.752773
0.1279 -0.222043 0.315242 -0.0231703 0.654734 -0.755504
0.199928 -0.199675 0.327214 -0.07521 0.669448 -0.739042
-0.0782429 -0.0118384 0.428697 -0.230195 -0.0592938 -0.971337
0.0510262 -0.0488373 0.452434 0.098674 -0.529853 -0.84233
-0.0626321 0.151797 0.494343 -0.401436 0.318877 -0.858584
0.161525 -0.151671 0.375202 -0.0809869 0.680269 -0.728475
-0.111343 0.188624 0.540603 -0.560953 0.259449 -0.786141
-0.0601044 -0.331906 0.22895 -0.0666882 0.677581 -0.732419
-0.0279402 -0.302207 0.255267 -0.064813 0.661652 -0.747005
0.0972489 -0.201861 0.334544 -0.068022 0.675027 -0.734651
0.125164 -0.0635293 0.455993 -0.0362241 0.540829 -0.840352
0.118881 0.188371 0.4955 -0.102998 0.623731 -0.774824
0.0758306 0.147938 0.468822 -0.109498 0.611159 -0.783897
-0.0444977 -0.291772 0.265334 -0.0605941 0.668127 -0.741575
0.145635 -0.131725 0.395118 -0.0750563 0.665855 -0.742296
0.0546531 -0.141553 0.395 -0.0669342 0.670383 -0.73899
0.1589 -0.0568286 0.459585 -0.0959026 0.520218 -0.848632
0.111793 -0.102098 0.425 -0.0702673 0.648849 -0.757666
0.0503472 -0.15847 0.378786 -0.0650099 0.670241 -0.739291
0.135165 -0.246939 0.29048 -0.054222 0.676189 -0.73473
-0.0141726 -0.110029 0.427385 -0.0608334 0.646405 -0.760566
0.0922439 0.0321648 0.405849 -0.0714006 0.329838 -0.941333
0.0636427 -0.15213 0.385 -0.0776264 0.678392 -0.730588
0.14275 0.0882114 0.417701 -0.104207 0.488991 -0.866042
0.130391 0.071691 0.425 -0.164807 0.095717 -0.98167
0 0 0 -0.882203 -0.330827 -0.335068
-0.0698424 -0.068603 0.451837 0.0145414 -0.46395 -0.885742
-0.136437 0.199201 0.564456 -0.255959 0.526581 -0.810677
-0.0308489 0.10099 0.472824 -0.39088 0.204597 -0.897415
0.0106995 -0.111492 0.425053 -0.0699382 0.676814 -0.732824
0.0942822 -0.0423683 0.4535 0.106786 -0.573747 -0.812042
-0.0301696 -0.279194 0.275349 -0.057335 0.668738 -0.741284
0.0483578 0.0711756 0.436743 -0.216556 0.267887 -0.938797
0.067535 -0.271516 0.275276 -0.0730743 0.669367 -0.73933
0.0333309 0.100941 0.440752 -0.295845 0.14294 -0.944481
0.0187118 0.0712856 0.443101 -0.219797 0.470483 -0.854596
-0.035217 -0.0704344 0.455 0.0686794 -0.159847 -0.98475
-0.0420959 -0.0816011 0.452252 -0.0226388 0.276795 -0.960662
0.0794873 0.0916506 0.426798 -0.15632 0.108352 -0.981745
-0.0101626 0.0850903 0.45834 -0.250892 0.380608 -0.890051
-0.0498636 0.0350852 0.433272 -0.211107 0.496898 -0.84174
0.0671794 -0.0713353 0.453511 -0.0285036 0.455281 -0.889892
-0.0801665 -0.0420313 0.437556 -0.152911 -0.354765 -0.922367
0.0809183 0.0601514 0.424083 -0.139551 0.487693 -0.861789
-0.0479429 0.122099 0.485622 -0.501026 0.11623 -0.857592
-0.0122887 0.117716 0.460853 -0.408999 0.0756004 -0.909398
0.09495 -0.10298 0.425568 -0.0615077 0.658221 -0.750308
-6.72241e-05 -0.0592834 0.452019 0.0382821 -0.0543698 -0.997787
0.0107062 -0.00296381 0.412076 -0.0593845 -0.291745 -0.954651
0.155023 -0.251752 0.2855 -0.0634172 0.671756 -0.738053
-0.0957535 0.153611 0.52103 -0.440324 0.347643 -0.827804
-0.00479703 -0.0739514 0.455606 -0.00288086 0.243066 -0.970005
0.0323688 0.0773841 0.445125 -0.252165 0.243282 -0.936604
0.0172817 0.0169427 0.411243 -0.153411 0.195646 -0.968601
-0.117282 -0.0918573 0.449825 -0.0241807 0.461953 -0.886575
-0.0832022 -0.0374793 0.437366 -0.179669 -0.32627 -0.928045
-0.0544219 0.123716 0.489347 -0.492571 0.171078 -0.853292
-0.0649669 0.133177 0.498974 -0.554199 0.140438 -0.820452
-0.0689125 -0.071342 0.455 0.00655908 -0.21839 -0.975839
0.0330217 0.0824583 0.445459 -0.329059 0.0817762 -0.940762
0.0652805 -0.050725 0.4555 0.0893169 -0.40046 -0.911951
0.0104872 0.086807 0.455167 -0.355898 0.119206 -0.926891
-0.119505 0.194061 0.55575 -0.631505 0.220037 -0.743495
-0.119576 0.209753 0.55025 -0.49923 0.37569 -0.780786
-0.068687 -0.0821668 0.455 -0.0215635 0.3104 -0.950361
-0.078917 -0.251619 0.30613 -0.0837486 0.677222 -0.730997
0.054478 -0.008378 0.034368 -0.556691 0.570726 0.603628
-0.0652861 0.125032 0.496965 -0.465783 0.285091 -0.837717
0.126262 0.0748959 0.422876 -0.135899 0.0569649 -0.989084
-0.0966029 -0.0792713 0.452197 -0.0523431 0.093717 -0.994222
-0.13807 0.216435 0.576417 -0.259267 0.530638 -0.806972
0.0452973 -0.072093 0.455 -0.0236152 0.335469 -0.941755
0.124388 -0.241961 0.295561 -0.0105232 0.66715 -0.744849
-0.104776 -0.0770724 0.456296 -0.0288836 0.0866499 -0.99582
-0.0806096 -0.0302943 0.435 -0.166525 -0.266901 -0.949228
0.067433 0.0721893 0.433966 -0.244221 0.237559 -0.940171
0.055235 -0.0663895 0.457372 -0.0220178 0.198901 -0.979772
0.134392 -0.132227 0.395431 -0.0656716 0.666717 -0.742412
-0.065372 -0.152121 0.395372 -0.0460403 0.67239 -0.738763
0.0454824 -0.0573204 0.456705 0.0588993 -0.189875 -0.98004
0.0152727 -0.010903 0.415 -0.0124915 -0.418402 -0.908176
0.160465 -0.0380215 0.461 -0.0256889 -0.292867 -0.955808
-0.0745777 -0.0771098 0.456203 -0.0419273 0.042536 -0.998215
0.134061 -0.121961 0.405055 -0.073511 0.681767 -0.727867
0.104774 -0.24381 0.297454 -0.100495 0.652842 -0.750798
0.115244 -0.056693 0.460378 0.000560132 0.173011 -0.98492
-0.0947058 -0.0830226 0.455315 -0.014831 0.310355 -0.950505
0.0153854 0.0837229 0.450806 -0.318554 0.153865 -0.935333
0.148264 0.0597217 0.416947 -0.129849 0.318675 -0.938928
0.123955 0.0719899 0.425 -0.147062 0.0793487 -0.985939
-0.0847938 -0.077943 0.456205 0.0111636 0.0862035 -0.996215
0.0150705 -0.0664786 0.457462 0.0247721 -0.0270987 -0.999326
0.0551876 0.073673 0.437371 -0.187992 0.163599 -0.968449
0.14519 -0.0465646 0.462515 0.0399015 -0.0906536 -0.995083
-0.0957511 -0.1319 0.415135 -0.0621235 0.675094 -0.735111
0.140976 -0.121717 0.405 -0.0832269 0.67886 -0.729536
-0.0239108 -0.0732308 0.455062 -0.00646982 0.179502 -0.983736
-0.124776 0.193688 0.55878 -0.494985 0.331176 -0.803313
0.0352922 -0.058314 0.456229 0.0819994 -0.237594 -0.967897
-0.0945872 -0.0776009 0.456271 -0.0484901 0.0281764 -0.998426
0.143649 0.073135 0.421201 -0.171586 0.145817 -0.974318
-0.0168722 0.0958616 0.465519 -0.387276 0.162019 -0.907616
0.0252607 -0.0664133 0.457573 0.0171602 0.020473 -0.999643
-0.0146274 -0.0675202 0.455833 0.0390685 -0.144289 -0.988764
0.0853864 0.073819 0.430901 -0.203924 0.0628021 -0.97697
0.0252061 -0.0729366 0.455578 -0.0209516 0.314857 -0.948908
-0.0715424 -0.071342 0.455 -0.0372197 -0.281146 -0.958943
0.162887 -0.251756 0.285298 -0.0730468 0.673487 -0.735581
0.0857018 -0.0473604 0.457521 0.0636361 -0.366164 -0.928372
-0.075491 0.134956 0.506408 -0.514113 0.261866 -0.81677
0.113982 0.0672477 0.425087 -0.107896 0.252552 -0.961549
-0.0149311 -0.0733502 0.45543 0.0065697 0.226334 -0.974028
-0.121458 -0.0765665 0.457085 -0.0285895 0.108731 -0.99366
0.105167 0.0736611 0.426303 -0.118841 0.0135023 -0.992822
0.0650405 -0.0656036 0.45728 0.00267802 0.191858 -0.981419
0.115024 0.0724118 0.42534 -0.122671 0.0318462 -0.991936
-0.0850223 -0.153159 0.396164 -0.046662 0.677352 -0.734178
-0.128526 0.206498 0.566455 -0.494425 0.404234 -0.769506
-0.075159 -0.152477 0.395687 -0.0366492 0.678191 -0.733972
0.00453051 0.0929931 0.457013 -0.406034 0.0366892 -0.913121
-0.0481271 0.116817 0.485231 -0.472448 0.180811 -0.862612
-0.0046678 0.0937739 0.460622 -0.371987 0.0748872 -0.925212
-0.0663085 -0.272139 0.285542 -0.0684128 0.661231 -0.747057
0.0952197 -0.0565715 0.460245 0.0304806 -0.0167247 -0.999395
0.0752361 0.0641092 0.428467 -0.167739 0.408326 -0.897292
0.172643 -0.152043 0.375 -0.0701924 0.680467 -0.72941
0.181624 -0.292747 0.245537 -0.0773841 0.683275 -0.726049
-0.116211 0.183695 0.548339 -0.54744 0.279304 -0.788859
0.0617526 0.0797087 0.435682 -0.20858 0.0828962 -0.974486
0.0352875 -0.0667054 0.456736 0.0134883 0.107642 -0.994098
0.145029 0.0636347 0.420351 -0.191424 0.284371 -0.939409
0.00476298 0.0857678 0.456024 -0.283636 0.237545 -0.929044
0.0651218 0.0740336 0.435775 -0.230563 0.190233 -0.954281
0.135234 0.0635232 0.421066 -0.12952 0.300302 -0.94501
0.105231 -0.0564813 0.459864 0.0171333 0.0255183 -0.999528
-0.0854083 -0.141838 0.405042 -0.0485203 0.674084 -0.737059
-0.0845393 -0.0830721 0.455473 -0.0137882 0.286185 -0.958075
-0.114819 -0.076523 0.456775 -0.112482 0.130057 -0.985105
0.161252 -0.04725 0.46325 -0.0421183 -0.0202926 -0.998907
0.0758018 0.0737394 0.432654 -0.243835 0.125717 -0.961634
0.0258893 -0.0587647 0.456012 0.0686215 -0.297781 -0.952165
0.0544485 0.0818744 0.437286 -0.26211 0.0199922 -0.964831
0.0349691 -0.131754 0.405 -0.0662912 0.650602 -0.75652
0.0851829 0.0646035 0.427803 -0.158185 0.349338 -0.923548
0.0951986 0.073763 0.428114 -0.152581 0.0284944 -0.98788
-0.0427395 -0.0710913 0.455 0.0334205 -0.14096 -0.989451
-0.0653371 -0.0763382 0.455417 -0.0317653 -0.00442057 -0.999486
0.0106398 0.0906965 0.455364 -0.388006 0.0332219 -0.921058
0.0344493 -0.072234 0.455 -0.0120514 0.329615 -0.944039
-0.0751137 -0.0829781 0.455457 -0.0283754 0.322947 -0.945991
-0.104313 -0.0823751 0.455143 -0.0284151 0.29957 -0.953651
0.116889 -0.231657 0.305227 -0.0209048 0.681204 -0.731795
0.0254222 0.0837637 0.447524 -0.354967 0.0795371 -0.931489
0.155074 -0.0466409 0.462825 -0.0244694 -0.100354 -0.994651
0.0717139 0.0738353 0.435 -0.249855 0.182677 -0.950895
0.131778 -0.111694 0.415 -0.0737149 0.657956 -0.74944
-0.10637 0.173514 0.537446 -0.570335 0.235623 -0.786892
-0.111384 0.182768 0.543846 -0.624699 0.228745 -0.746611
0.105257 -0.0466293 0.458893 0.056671 -0.259616 -0.964048
-0.107226 0.166471 0.535667 -0.456437 0.37996 -0.804547
-0.0979386 0.156986 0.5255 -0.479148 0.317867 -0.818155
-0.0870185 0.145021 0.515957 -0.521871 0.258253 -0.812992
-0.0830545 0.142965 0.51273 -0.508518 0.249499 -0.824112
0.104941 0.0663159 0.425777 -0.120819 0.277601 -0.953069
0.015277 -0.0733953 0.456095 -0.0181027 0.290332 -0.956755
-0.0953096 -0.152886 0.395966 -0.0593957 0.678095 -0.732571
-0.0767224 -0.141791 0.405 -0.0262364 0.678099 -0.734502
0.00510796 -0.0733352 0.455718 -0.00739401 0.264835 -0.964265
-0.0356347 -0.0747193 0.455106 0.0165607 0.125134 -0.992002
0.0852781 -0.0566116 0.460277 0.0696553 -0.0232103 -0.997301
0.00465031 -0.122494 0.415 -0.0615803 0.66164 -0.747289
-0.0760068 0.143342 0.50833 -0.581381 0.124077 -0.804115
0.0755979 -0.0655848 0.45723 0.000582697 0.246279 -0.969199
0.0750338 -0.0567094 0.459233 0.048663 -0.0416047 -0.997948
0.0953122 -0.0464877 0.458519 0.0544244 -0.30053 -0.952218
0.115366 -0.0464225 0.459821 0.0816166 -0.222259 -0.971566
0.0551017 -0.0565695 0.458183 0.0453677 -0.145633 -0.988298
0.0563245 -0.0508547 0.455421 0.0798319 -0.395899 -0.914817
0.135356 -0.0565549 0.460204 0.0224796 0.167416 -0.98563
0.0652795 -0.0565327 0.45884 0.044948 -0.096417 -0.994326
-0.035854 0.113064 0.477136 -0.466501 0.132914 -0.874477
-0.0336289 0.106543 0.476542 -0.424493 0.180238 -0.88731
0.12524 -0.0463359 0.460952 0.085202 -0.184847 -0.979067
0.00535156 -0.066891 0.456429 0.0258836 -0.0749307 -0.996853
0.017131 -0.0598482 0.45525 0.0751343 -0.338808 -0.937851
-0.124671 0.202812 0.561 -0.561742 0.335813 -0.756092
-0.0549899 -0.0747687 0.455 -0.0226905 0.024349 -0.999446
0.12526 -0.0565423 0.46023 0.0171713 0.147952 -0.988845
0.135247 -0.0465574 0.461903 0.0940777 -0.138495 -0.985885
-0.0842117 -0.072877 0.453705 0.00708055 -0.188313 -0.982083
-0.00457889 -0.0673232 0.456008 0.0195038 -0.108847 -0.993867
-0.0245839 0.103741 0.469813 -0.390728 0.14346 -0.909259
0.0850619 -0.0656893 0.457278 0.00956419 0.343615 -0.939062
0.103818 -0.102425 0.425 -0.072236 0.653578 -0.753404
-0.016588 -0.191493 0.355844 -0.0419023 0.66112 -0.74911
-0.0447279 -0.0752674 0.455009 -0.000266732 0.0886135 -0.996066
3 19 18 7
3 58 34 12
3 9 43 28
3 20 17 22
3 115 65 50
3 50 39 38
3 31 90 21
3 54 0 90
3 69 96 14
3 14 96 81
3 23 58 12
3 9 25 43
3 25 37 43
3 48 115 17
3 33 54 90
3 16 13 19
3 7 29 14
3 24 46 28
3 37 22 43
3 31 33 90
3 77 16 33
3 16 54 33
3 16 0 54
3 29 69 14
3 53 96 69
3 96 64 81
3 46 24 2
3 46 36 28
3 57 22 37
3 57 20 22
3 70 65 115
3 77 33 31
3 53 64 96
3 64 11 81
3 58 2 34
3 36 9 28
3 20 48 17
3 39 21 38
3 13 18 19
3 67 7 18
3 64 47 11
3 45 12 11
3 48 70 115
3 4 13 16
3 23 8 58
3 45 25 9
3 68 57 37
3 39 50 65
3 4 77 31
3 8 2 58
3 8 46 2
3 70 59 65
3 61 39 65
3 77 4 16
3 74 64 53
3 68 30 57
3 30 20 57
3 80 48 20
3 59 61 65
3 6 4 31
3 13 67 18
3 74 47 64
3 45 11 47
3 25 68 37
3 72 31 21
3 12 36 23
3 36 45 9
3 75 80 20
3 72 6 31
3 4 6 13
3 80 7 67
3 80 29 7
3 75 69 29
3 75 53 69
3 36 12 45
3 36 46 8
3 53 75 20
3 70 48 80
3 62 59 70
3 62 61 59
3 61 21 39
3 66 6 72
3 66 13 6
3 75 29 80
3 74 68 47
3 25 45 47
3 68 74 30
3 74 20 30
3 72 21 61
3 8 23 36
3 25 47 68
3 53 20 74
3 66 61 62
3 66 72 61
3 67 70 80
3 67 62 70
3 66 67 13
3 66 62 67
3 16 19 0
