ply
format ascii 1.0
comment Created by Open3D
element vertex 384
property double x
property double y
property double z
property double nx
property double ny
property double nz
element face 500
property list uchar uint vertex_indices
end_header
0.115807 0.180186 0.4884 0.112549 -0.614265 0.781032
0.162135 -0.253788 0.282718 0.0638068 -0.679899 0.730525
-0.124972 0.119253 0.509148 0.217432 -0.544079 0.810371
0 0 0 0.856118 -0.379094 -0.351212
-0.140353 0.01317 0.452167 0.34161 -0.32724 0.881032
-0.11717 0.180949 0.547654 0.446779 -0.37788 0.810922
-0.0899356 0.0913603 0.480629 0.212024 -0.524372 0.824669
0.0958024 -0.0793801 0.445943 0.0462911 -0.620715 0.782668
0.151018 -0.139169 0.387021 0.0773391 -0.670408 0.737951
0.063446 0.192937 0.505932 0.105677 -0.615784 0.780796
-0.134214 0.102477 0.498167 0.205755 -0.531586 0.821633
-0.166287 0.187451 0.561781 0.169727 -0.555387 0.814087
-0.143972 0.135028 0.522435 0.193451 -0.529048 0.826247
-0.0258642 0.137115 0.475261 0.221693 -0.509165 0.831627
-0.149725 0.0485838 0.471982 0.244201 -0.466965 0.849888
-0.101836 0.0504083 0.457622 0.24747 -0.503866 0.827573
-0.117607 0.195207 0.552573 0.617527 -0.242637 0.74819
-0.153299 0.222454 0.583858 0.175794 -0.537908 0.824471
-0.110612 0.0718565 0.474108 0.245282 -0.508619 0.825314
-0.059292 -0.334369 0.226749 0.0707911 -0.687448 0.722775
0.090591 0.008075 0.404 -0.0376377 0.31631 0.947909
-0.110057 -0.134767 0.413397 0.060282 -0.674442 0.735862
0.191399 -0.15903 0.36531 0.0760069 -0.672208 0.73645
0.194011 -0.18285 0.342255 0.0890156 -0.667489 0.73928
0.130531 0.0719718 0.425 0.134565 -0.131862 0.982092
0.131784 0.133681 0.450705 0.0715878 -0.606011 0.792229
0.1608 0.0162961 0.4079 -0.144409 0.469334 0.871132
0.160517 0.008275 0.414 -0.146622 0.559344 0.815866
0.0982084 0.132806 0.453013 0.107507 -0.610459 0.784718
-0.0736777 -0.266432 0.289831 0.070941 -0.667936 0.74083
0.181201 -0.119172 0.401004 0.0810422 -0.666073 0.741471
0.105546 -0.00583698 0.417911 -0.108455 0.674311 0.73044
-0.0298892 -0.309921 0.24712 0.0606023 -0.681715 0.729103
-0.0248842 0.0934541 0.468229 0.248614 -0.432296 0.866782
0.170629 -0.156857 0.368126 0.0724096 -0.667878 0.74074
-0.104793 -0.0769291 0.456024 0.0679823 0.178619 0.981567
-0.181756 0.167662 0.55239 0.196815 -0.539663 0.818552
0.0706828 0.14408 0.466921 0.113296 -0.606804 0.786736
-0.097128 -0.0136687 0.433334 0.241994 0.0191997 0.970088
-0.0562014 -0.172672 0.374745 0.0570979 -0.685284 0.726034
-0.091096 -0.150723 0.394376 0.0534769 -0.664936 0.744983
-0.0591901 0.0514131 0.445989 0.225182 -0.538532 0.811959
-0.0697533 0.0684791 0.460962 0.225917 -0.520777 0.823257
0.160281 -0.02993 0.454 -0.0210773 0.489409 0.871799
-0.135939 0.219364 0.575778 0.427411 -0.445886 0.786451
-0.132407 -0.0137716 0.445221 0.313908 0.00718179 0.949426
-0.069397 0.138584 0.505 0.5941 -0.156351 0.78905
-0.0622728 -0.316965 0.244341 0.0749781 -0.67497 0.734025
-0.00810862 0.198909 0.519833 0.0932996 -0.60108 0.793724
-0.058639 0.108255 0.485 0.291941 -0.462054 0.837422
-0.0916916 -0.0574841 0.446285 0.14247 0.37738 0.915034
-0.0014845 0.0918003 0.459522 0.350307 -0.159786 0.922905
-0.0608078 0.188517 0.518216 0.147784 -0.56169 0.814042
0.089824 0.0865835 0.424 0.214952 -0.0912635 0.972351
0.166428 -0.153168 0.373869 0.0726029 -0.676621 0.732743
-0.0499174 -0.286984 0.269872 0.0632871 -0.667101 0.742274
-0.00928494 -0.0986792 0.437991 0.0601694 -0.650161 0.75741
-0.0703621 -0.296545 0.263384 0.0734628 -0.666456 0.741916
-0.122487 0.00157393 0.442415 0.313988 -0.177301 0.932725
-0.124494 0.0187355 0.448842 0.305809 -0.357207 0.882544
-0.0500849 0.0359211 0.432804 0.237205 -0.467786 0.851416
-0.136087 0.0836915 0.487985 0.228098 -0.486603 0.84332
0.0870117 -0.312611 0.235591 0.0642326 -0.660663 0.747929
0.118873 -0.220655 0.314546 0.0316662 -0.677656 0.734697
0.00662808 -0.223006 0.323951 0.0496746 -0.657771 0.751578
-0.033207 -0.191549 0.354947 0.056367 -0.656561 0.752164
0.151943 0.0625997 0.418323 0.184736 -0.326119 0.927102
-0.12131 -0.0766428 0.456509 0.0277172 -0.0707962 0.997106
-0.129936 -0.022302 0.444 0.306468 0.0775063 0.94872
-0.0497687 0.15284 0.490656 0.256094 -0.490734 0.832824
-0.132814 0.156228 0.534147 0.177602 -0.554597 0.812945
-0.160341 0.0775699 0.490845 0.230817 -0.487363 0.84214
-0.00220333 -0.221539 0.324909 0.0444159 -0.652675 0.756335
-0.0494379 0.118382 0.485472 0.464869 -0.183055 0.866249
0.00663548 -0.307889 0.246074 0.0670019 -0.681552 0.728696
-0.0517826 0.0178012 0.426009 0.246383 -0.310648 0.918038
-0.0577998 0.00358848 0.424776 0.251289 -0.109943 0.961648
-0.0297751 -0.200143 0.34856 0.0633006 -0.67381 0.736188
0.0743478 -0.266513 0.278257 0.0708821 -0.674243 0.7351
0.161118 0.0369368 0.403277 -0.176567 -0.104884 0.978684
-0.0523671 -0.0756416 0.455 -0.0153047 0.0469464 0.99878
0.165659 -0.270022 0.266051 0.0614118 -0.683481 0.727381
0.0399726 0.175757 0.496428 0.111211 -0.616292 0.779626
-0.173073 0.122296 0.521792 0.207241 -0.522826 0.826864
0.136631 -0.120951 0.404323 0.0807854 -0.671525 0.736565
-0.112643 0.144932 0.521506 0.235175 -0.523082 0.819193
-0.184609 0.226045 0.592 0.154582 -0.54684 0.822843
-0.12071 0.0439221 0.45983 0.283922 -0.464878 0.838616
-0.146376 0.188826 0.55952 0.208629 -0.53495 0.81872
-0.18485 0.218067 0.585445 0.156817 -0.548737 0.821155
0.0198215 -0.120297 0.415747 0.0662884 -0.664581 0.744271
-0.0877239 0.0235945 0.438796 0.268227 -0.373343 0.888071
-0.0809532 -0.034443 0.436966 0.169671 0.320539 0.931915
-0.027803 -0.242141 0.308962 0.0605117 -0.686642 0.724473
-0.0803588 -0.252975 0.303764 0.0592388 -0.677202 0.733409
0.0258957 -0.295027 0.257077 0.0555201 -0.68268 0.728605
-0.0622972 0.143936 0.491413 0.613398 -0.0956834 0.783957
-0.102818 0.19284 0.531893 0.579633 -0.185661 0.793445
-0.0580758 0.0844171 0.466137 0.178485 -0.542658 0.820771
-0.0963862 0.110009 0.493017 0.199922 -0.546231 0.813427
0.0579159 -0.255607 0.291497 0.0703534 -0.670813 0.738282
0.0551174 -0.135589 0.399859 0.0640575 -0.664421 0.744609
-0.0210699 -0.206288 0.340164 0.0659162 -0.688713 0.722031
0.0244654 0.0504294 0.426937 0.165182 -0.545776 0.821488
0.0253432 0.151969 0.478698 0.104645 -0.612773 0.7833
0.151345 -0.237024 0.298366 0.0707774 -0.672797 0.736434
-0.00373016 -0.24756 0.30147 0.0536036 -0.672035 0.738577
0.0972709 -0.101448 0.424524 0.0629011 -0.655394 0.752663
0.16478 -0.061434 0.454 0.173598 -0.470864 0.864957
0.150019 -0.0781072 0.442269 0.0612127 -0.658565 0.750031
-0.0433119 -0.225939 0.324327 0.0589481 -0.661932 0.747243
0.0785823 -0.037552 0.445673 -0.116745 0.655899 0.745766
-0.0411483 -0.291362 0.264237 0.0546051 -0.671866 0.738657
0.0461701 -0.157728 0.378943 0.0670897 -0.670871 0.738533
0.106109 -0.299667 0.245151 0.0749089 -0.661438 0.746249
-0.0644182 0.162741 0.500796 0.309022 -0.443074 0.841541
0.0326653 0.0334783 0.414262 0.158779 -0.435572 0.88604
0.0509505 0.022865 0.407021 0.117087 -0.218905 0.968696
-0.0636507 -0.0446174 0.436019 0.0745206 0.466951 0.881138
-0.0583986 -0.0617748 0.448818 -0.0116689 0.465867 0.884778
-0.0718182 -0.0824142 0.455185 0.0408678 -0.430647 0.901595
-0.115091 -0.0642426 0.4538 0.104184 0.23129 0.96729
0.114454 0.0977595 0.425 0.127092 -0.383457 0.914772
0.0853474 0.0975488 0.429124 0.175296 -0.36969 0.91247
0.090202 -0.101565 0.424987 0.0592019 -0.660409 0.748569
0.0183259 -0.260524 0.288983 0.0543333 -0.669623 0.740711
0.0758709 0.0735612 0.433611 0.213154 -0.133572 0.967845
0.097156 0.0457435 0.412444 0.0862232 -0.512355 0.854434
0.0695234 0.0619392 0.427378 0.141413 -0.496001 0.85673
0.0513569 -0.0544029 0.455993 -0.0747645 0.350124 0.933715
0.0388972 0.00849605 0.407604 0.0869783 0.0647984 0.994101
-0.0248864 -0.0279766 0.423845 0.0473629 0.487143 0.872037
-0.0285728 -0.0394415 0.431827 -0.042203 0.621361 0.782387
0.100366 -0.133434 0.396354 0.0652757 -0.674663 0.735234
-0.102555 -0.155019 0.39384 0.0530403 -0.664374 0.745516
-0.0497533 -0.0956318 0.443938 0.062322 -0.541679 0.838272
0.195244 -0.23637 0.294234 0.0636971 -0.66694 0.742384
0.146067 -0.131099 0.394315 0.0881181 -0.665308 0.74135
0.0968626 0.0897879 0.423771 0.142165 -0.16631 0.975772
0.084946 0.0830714 0.426767 0.188711 -0.0159597 0.981903
-0.0656572 -0.154199 0.392811 0.046907 -0.663052 0.747102
0.102546 0.0271372 0.403943 0.0306887 -0.176079 0.983898
0.0654254 0.0111442 0.405884 0.0734994 0.203906 0.976228
0.0189231 -0.071823 0.456139 0.00388169 -0.271821 0.96234
0.00890833 0.115083 0.45336 0.258483 -0.334945 0.906089
0.132857 0.0324465 0.403414 0.0383523 -0.183374 0.982295
-0.0908668 -0.144255 0.40251 0.0505965 -0.674664 0.736389
0.154115 0.0481223 0.407767 0.0554091 -0.408737 0.910968
0.105109 0.015464 0.403389 -0.0439669 0.204991 0.977776
0.0904348 0.0130802 0.403619 -0.0250445 0.192332 0.98101
0.0752474 -0.018871 0.425781 -0.114181 0.693733 0.711124
0.00774226 -0.0891278 0.444235 0.0498577 -0.619867 0.783121
0.0693535 -0.170443 0.367157 0.0657579 -0.673381 0.736366
0.144489 -0.12291 0.402498 0.0863807 -0.668101 0.73904
0.004446 -0.00866894 0.413655 0.0360704 0.373335 0.926995
0.0366921 -0.320231 0.232679 0.0522698 -0.668672 0.741718
0.0618278 -0.072093 0.455 0.0298582 -0.392484 0.919274
-0.0473623 0.125845 0.482216 0.50244 -0.0902526 0.859889
0.049657 0.099023 0.434 0.240032 -0.226401 0.943995
-0.0640728 0.139499 0.495942 0.619342 -0.0998911 0.778741
-0.0730573 0.154007 0.500267 0.590278 -0.0809399 0.803132
-0.0838461 0.163289 0.510323 0.592785 -0.154905 0.790323
-0.094183 0.15294 0.52122 0.529188 -0.221789 0.819005
-0.0883798 0.17847 0.519901 0.474965 -0.327271 0.816886
-0.0979641 0.183732 0.526359 0.573733 -0.208959 0.791939
-0.0986073 0.188857 0.529939 0.565156 -0.249632 0.786309
0.00586164 -0.121249 0.414731 0.0619455 -0.662915 0.746127
-0.0966868 -0.114842 0.430493 0.0529867 -0.659282 0.750026
-0.112784 -0.107239 0.437115 0.0241629 -0.5937 0.804324
0.131795 0.098374 0.425 0.134282 -0.355967 0.9248
0.107602 0.115434 0.439019 0.0896041 -0.595478 0.798359
0.0913533 0.157271 0.474308 0.107599 -0.614243 0.781747
0.105268 0.0618622 0.423217 0.115643 -0.347971 0.930345
0.074549 -0.000794213 0.409933 -0.0288972 0.502433 0.864133
0.0261462 -0.0267469 0.426103 -0.0823659 0.645946 0.758926
0.0386709 -0.0443844 0.446617 -0.109802 0.614699 0.781082
0.00291131 -0.0449974 0.440418 -0.084134 0.636049 0.767049
-0.00625027 -0.159071 0.383025 0.0573882 -0.672695 0.737691
-0.0740739 -0.140809 0.403609 0.0321125 -0.680457 0.732084
0.221481 -0.287757 0.244259 0.0631242 -0.693354 0.717827
0.191373 -0.283713 0.251078 0.0637422 -0.687142 0.723721
0.108117 -0.231059 0.304372 0.088733 -0.66882 0.73811
0.140695 0.0417774 0.405316 0.0623056 -0.363716 0.929424
-0.0315908 0.115192 0.472979 0.511199 -0.0353231 0.858736
-0.0848608 0.173706 0.514064 0.418721 -0.372008 0.828422
-0.0931287 0.182824 0.522338 0.528311 -0.280642 0.801328
0.128139 -0.111459 0.414661 0.0664468 -0.661397 0.747087
-0.0203346 -0.0599091 0.45151 -0.0793969 0.406393 0.910242
-0.0547209 -0.245379 0.309372 0.0672349 -0.673012 0.736569
-0.119522 0.209657 0.55 0.593493 -0.296766 0.748128
-0.0627395 -0.0768529 0.453863 0.0109201 0.000698394 0.99994
0.0225981 -0.105632 0.428731 0.0631527 -0.668341 0.741169
0.0471517 -0.0887912 0.441168 0.0707495 -0.636629 0.767918
-0.0507993 0.0667947 0.455402 0.184387 -0.543418 0.818962
-0.0553256 0.160351 0.497289 0.238808 -0.504757 0.829573
0.172135 -0.196788 0.332801 0.0771244 -0.664586 0.743221
0.129797 -0.18921 0.343826 0.0712787 -0.671169 0.73787
0.119095 -0.169598 0.362433 0.0762046 -0.676639 0.732361
0.154712 -0.251232 0.284587 0.0609315 -0.673545 0.73663
0.114649 -0.231093 0.304291 0.0380961 -0.682605 0.729794
0.119877 -0.236571 0.299597 0.0372924 -0.665626 0.745354
0.0988389 -0.219637 0.317967 0.072669 -0.686579 0.723414
0.182095 -0.263927 0.271665 0.0677648 -0.684684 0.725683
0.0539687 -0.216171 0.326499 0.0651137 -0.674286 0.735594
0.0701821 0.0334406 0.408104 0.108404 -0.445767 0.888561
0.14363 0.018088 0.404 -0.074017 0.311333 0.947414
0.114935 0.0926217 0.421428 0.101662 -0.24198 0.964941
-0.105116 0.202523 0.537657 0.641914 -0.152328 0.751493
0.0755009 0.097501 0.430385 0.16897 -0.333227 0.927582
-0.00980573 0.0605205 0.440574 0.167532 -0.56727 0.806311
-0.137745 0.210594 0.572051 0.331385 -0.507143 0.795606
0.0852472 -0.0656784 0.457278 0.0250462 -0.471715 0.881395
-0.031482 -0.179514 0.365564 0.0529101 -0.669322 0.741086
0.0708758 -0.231877 0.309805 0.0696238 -0.665429 0.743207
0.132949 -0.302784 0.238791 0.0704973 -0.67192 0.737261
0.122691 -0.275889 0.264327 0.0709642 -0.678805 0.730882
0.103178 -0.276437 0.267264 0.0764027 -0.675987 0.732943
-0.0866716 -0.221266 0.33253 0.0588851 -0.667429 0.742342
-0.0460318 -0.123497 0.418527 0.0603378 -0.669317 0.740522
-0.0453403 -0.143281 0.400209 0.0575797 -0.669593 0.740493
-0.0904821 0.00549036 0.434331 0.266309 -0.192045 0.944562
0.143644 0.0727025 0.420974 0.16734 -0.125572 0.97787
0.103382 0.189854 0.498739 0.0949298 -0.624751 0.775032
-0.0346263 0.172293 0.503145 0.123922 -0.579891 0.805214
0.159831 -0.151329 0.374 0.0721131 -0.681831 0.727947
-0.0631586 -0.196165 0.353333 0.049252 -0.655954 0.753192
0.0540228 -0.117167 0.415131 0.0582665 -0.660412 0.74864
0.0150648 -0.0665631 0.457609 -0.0528491 0.195859 0.979207
0.042749 -0.251293 0.294682 0.0490936 -0.660079 0.74959
0.125311 -0.0956 0.427558 0.0708175 -0.658322 0.749398
0.01932 -0.204142 0.339457 0.0575268 -0.673414 0.737024
0.0729423 -0.187643 0.349226 0.0709202 -0.677261 0.732317
0.104739 -0.0307003 0.442646 -0.119601 0.690947 0.712943
-0.0954653 0.203934 0.536163 0.256706 -0.499583 0.827357
0.0649247 0.104455 0.437193 0.137867 -0.451231 0.881693
0.133219 -0.229852 0.30814 0.0227201 -0.671553 0.740608
-0.029191 0.104454 0.475 0.433675 -0.129951 0.891649
0.220518 -0.270319 0.262423 0.0622872 -0.679987 0.730574
0.0791963 0.118609 0.44653 0.108889 -0.611359 0.783826
0.131372 -0.256412 0.282691 0.0581361 -0.673843 0.736584
0.132906 -0.216775 0.317454 0.048254 -0.660126 0.749604
0.0956379 -0.201518 0.336218 0.0658756 -0.669792 0.739621
0.162153 0.00345042 0.418985 -0.140092 0.651786 0.745352
-0.0193221 0.0106388 0.416134 0.197204 -0.150723 0.968707
0.156484 -0.208506 0.323704 0.0640807 -0.665035 0.744058
0.0343661 -0.235229 0.30975 0.0643091 -0.671097 0.738575
0.125212 -0.0423136 0.458074 -0.111501 0.426391 0.89764
0.0734522 -0.288909 0.258037 0.0687255 -0.676709 0.733036
-0.035161 0.139021 0.47832 0.278015 -0.414369 0.866606
-0.0661263 -0.214701 0.337803 0.0536053 -0.675223 0.735664
0.153484 -0.161442 0.364951 0.0772042 -0.668642 0.739565
-0.0962011 -0.187339 0.364133 0.0664436 -0.672413 0.737188
0.000163284 0.00355291 0.412137 0.120096 0.0379811 0.992035
-0.0176133 -0.279337 0.274756 0.0554108 -0.6735 0.737107
0.1757 -0.294151 0.244036 0.0721723 -0.681907 0.72787
0.0291231 0.0806334 0.446269 0.284822 -0.281197 0.916408
0.0252932 0.11323 0.44865 0.192175 -0.477488 0.857365
0.0277618 -0.169886 0.369935 0.0636512 -0.668479 0.741002
-0.0225589 0.110907 0.466667 0.479203 -0.0338901 0.877049
-0.0202388 0.123834 0.465617 0.356412 -0.255899 0.898602
0.0383615 -0.139696 0.396509 0.0674633 -0.665244 0.743572
0.0926129 -0.102382 0.4252 0.0634309 -0.655501 0.752526
-0.0736407 0.161566 0.502491 0.491545 -0.23577 0.838329
-0.10116 0.199037 0.534 0.514133 -0.25542 0.818796
-0.0542091 -0.0102523 0.423084 0.215461 0.0525676 0.975097
0.0446843 -0.266404 0.280805 0.0661497 -0.679238 0.730931
0.0551374 0.0935144 0.432168 0.212216 -0.106055 0.971451
0.0498072 0.0876785 0.43375 0.28775 0.0227118 0.957436
0.203383 -0.215369 0.313306 0.0794978 -0.662945 0.744435
0.0450436 0.103496 0.43851 0.15891 -0.480318 0.862579
0.176175 -0.2813 0.254738 0.0779892 -0.677106 0.731741
0.170847 -0.080969 0.436 0.0917795 -0.666928 0.739448
0.054466 -0.008384 0.034302 0.520937 -0.593985 -0.61303
-0.0659385 0.154813 0.496132 0.496627 -0.223273 0.838756
-0.0169348 -0.00854048 0.415728 0.112627 0.27387 0.955149
0.153698 -0.0176463 0.438619 -0.132899 0.70977 0.691783
0.183293 -0.137199 0.385309 0.0733545 -0.663603 0.74448
0.102622 -0.248885 0.292424 0.0871972 -0.662296 0.744151
0.092953 -0.235691 0.304689 0.088655 -0.661303 0.744861
0.133982 -0.0566214 0.460423 0.0384037 -0.303363 0.952101
-0.00511281 -0.324646 0.231305 0.0596801 -0.68048 0.730332
0.130206 -0.0466177 0.46128 -0.0545643 0.164125 0.984929
-0.123508 -0.0411808 0.447237 0.248626 0.273816 0.929091
0.0954051 -0.081354 0.444 0.0518167 -0.652953 0.755624
0.0500088 0.0736805 0.438064 0.290043 -0.120136 0.949443
0.0718133 -0.157308 0.377239 0.0650413 -0.671343 0.738287
-0.0165968 0.0362723 0.426034 0.184039 -0.496903 0.848067
0.124322 -0.22037 0.314389 0.0262369 -0.665129 0.746268
0.126222 0.0756741 0.42301 0.131864 -0.0139598 0.991169
0.090207 -0.0569773 0.460448 -0.0388975 0.0189762 0.999063
-0.190948 0.206979 0.580987 0.175621 -0.544575 0.820119
-0.0444507 0.141767 0.481716 0.258249 -0.451741 0.853954
-0.00935445 -0.106942 0.429838 0.0604434 -0.663947 0.745333
0.143239 -0.101899 0.422171 0.0681876 -0.655545 0.752071
0.137937 0.10827 0.431165 0.075194 -0.514036 0.854467
-0.0209856 0.120129 0.46375 0.445406 -0.170532 0.878938
-0.074948 -0.0127397 0.429099 0.218539 0.103068 0.97037
0.0181905 -0.131544 0.404867 0.0684164 -0.652599 0.754608
-0.00913682 0.0221192 0.416689 0.185155 -0.353826 0.916801
-0.047176 -0.0192681 0.424193 0.177145 0.242982 0.953719
-0.0147707 -0.0863093 0.44881 0.0366373 -0.48334 0.874666
0.0237694 -0.132497 0.405056 0.0646911 -0.660672 0.747882
-0.0689127 -0.0311392 0.431505 0.158897 0.331089 0.930125
-0.0872968 -0.16959 0.380296 0.052252 -0.671682 0.738994
0.0563019 0.0859923 0.43303 0.208915 0.00656311 0.977912
0.0429885 0.0925451 0.43551 0.335024 -0.0256078 0.941861
0.0353033 0.0933099 0.439014 0.373035 -0.0368088 0.927087
0.0216522 0.0958684 0.446945 0.359359 -0.0808338 0.929692
0.035247 0.102974 0.440847 0.320301 -0.261387 0.91054
0.0152412 0.103236 0.446771 0.333125 -0.0794877 0.939526
0.154715 0.0240377 0.403557 -0.108152 0.258259 0.960003
0.210983 -0.236625 0.293996 0.0546576 -0.670879 0.73955
0.0250583 -0.0111639 0.413944 -0.0237861 0.47066 0.881994
0.0673519 0.0738198 0.433852 0.218063 -0.171449 0.960757
-0.060366 -0.00816225 0.424 0.220089 0.0473522 0.97433
0.125571 0.0118978 0.406384 -0.0753506 0.481258 0.873335
0.0580841 -0.151215 0.384171 0.0638593 -0.67771 0.732551
-0.0515833 0.134493 0.48293 0.540472 -0.105608 0.834708
0.123853 -0.230677 0.303742 0.0043854 -0.679967 0.733229
0.146925 -0.141557 0.384949 0.0805566 -0.667094 0.740606
0.000189147 0.123258 0.46037 0.197605 -0.474821 0.857612
-0.0852323 0.194395 0.527311 0.242511 -0.501106 0.830711
0.106005 0.0838351 0.421765 0.100018 -0.00779525 0.994955
0.0789155 0.008075 0.404 0.0295013 0.334577 0.941906
-0.0740895 0.132636 0.505125 0.302685 -0.449304 0.84054
0.125281 0.0831652 0.418192 0.103806 -0.0306514 0.994125
-0.0748205 -0.151323 0.394654 0.0352884 -0.663598 0.747256
-0.0335881 0.131041 0.472607 0.392848 -0.267221 0.879922
0.065314 0.083423 0.431294 0.214431 -0.0176623 0.976579
0.0661759 -0.150565 0.383962 0.0713281 -0.676504 0.732977
0.0620826 0.079245 0.43545 0.210878 -0.0186115 0.977335
-0.0146172 0.113191 0.459994 0.450919 -0.0950787 0.887486
-0.0732632 0.1442 0.50565 0.598953 -0.0807012 0.796707
-0.0450801 0.133152 0.47898 0.439368 -0.17105 0.881872
-0.055424 0.143913 0.487047 0.523328 -0.219602 0.823348
-0.101297 -0.131019 0.414341 0.068238 -0.677955 0.731929
0.00123457 0.0991513 0.455286 0.394904 -0.0133716 0.918625
0.135276 0.0832704 0.416844 0.123839 -0.0963074 0.987618
0.193773 -0.290013 0.24385 0.0715788 -0.68913 0.721094
0.0852533 0.008075 0.404 -0.0106489 0.341523 0.939813
0.0155086 -0.12107 0.41461 0.0699709 -0.664847 0.743695
-0.00135332 0.110203 0.453727 0.334614 -0.12048 0.934622
-0.0518534 0.140492 0.483333 0.488 -0.18852 0.852242
-0.0762007 0.165035 0.505875 0.483599 -0.252831 0.837979
0.126384 -0.241278 0.294622 0.0212425 -0.666741 0.744987
0.166362 -0.150945 0.374001 0.0739927 -0.679937 0.729528
0.175872 -0.150432 0.373478 0.0752235 -0.676126 0.732936
0.0461259 -0.130243 0.403988 0.0583784 -0.65563 0.752822
0.135271 -0.100054 0.423596 0.0572525 -0.647314 0.76007
-0.101143 0.173771 0.53288 0.6224 -0.191436 0.758927
0.0652001 0.0932119 0.430387 0.16743 -0.126166 0.977778
-0.0210927 0.114221 0.463238 0.493332 -0.027619 0.869402
0.0735762 -0.30127 0.244747 0.0610265 -0.667112 0.742453
0.0552711 0.099023 0.434 0.194689 -0.320874 0.926896
-0.0909154 -0.0264729 0.434119 0.205021 0.235255 0.950064
-0.108321 0.180478 0.540213 0.617505 -0.217559 0.755881
-0.107618 0.194066 0.536537 0.628739 -0.163917 0.760144
0.129501 0.0205411 0.403081 -0.0263432 0.211219 0.977084
0.161155 -0.0470185 0.462973 0.0722751 0.00994858 0.997335
-0.0633395 0.150957 0.492729 0.526651 -0.242259 0.814831
0.127389 -0.110974 0.414264 0.0598231 -0.661475 0.747577
0.115279 0.0832746 0.420425 0.094026 0.00336694 0.995564
0.125403 0.0929788 0.420557 0.103646 -0.244074 0.964202
-0.0640698 -0.151202 0.394484 0.0437064 -0.665938 0.744726
0.142519 0.0935104 0.419344 0.0470222 -0.251948 0.966598
0.169647 -0.281453 0.254798 0.0811739 -0.668246 0.739499
-0.00128508 0.106321 0.453667 0.377784 0.00133966 0.925893
-0.0798912 0.153003 0.509503 0.597445 -0.0778039 0.798126
0.0355341 -0.131194 0.404454 0.0697606 -0.656059 0.751479
-0.0842568 -0.141003 0.404098 0.0453094 -0.681475 0.730438
0.00550284 0.103296 0.450676 0.385102 -0.0625396 0.920753
0.0473955 0.0939278 0.433491 0.318093 -0.0964003 0.943146
0.114962 0.0162751 0.403516 -0.0161829 0.238511 0.971005
-0.085718 -0.150719 0.394346 0.0412413 -0.664326 0.746304
0.02544 0.102329 0.442852 0.318983 -0.134099 0.938226
0.0267431 0.0952464 0.442453 0.386006 -0.0457294 0.921362
0.187096 -0.289285 0.243223 0.0694756 -0.690161 0.720313
0.0255919 -0.131347 0.404815 0.0707795 -0.65634 0.751138
0.137476 -0.131268 0.394735 0.0860812 -0.668101 0.739075
-0.00531878 0.113749 0.456433 0.342873 -0.165606 0.924669
0.15677 -0.271488 0.264448 0.0687587 -0.67736 0.732431
-0.0338053 0.123635 0.471585 0.471047 -0.108363 0.875427
0.0957797 0.0859093 0.42333 0.177279 -0.0627569 0.982158
0.105882 0.0913658 0.422429 0.129534 -0.240418 0.961988
3 25 170 294
3 170 169 294
3 294 169 364
3 169 221 364
3 24 66 221
3 310 26 79
3 358 108 43
3 271 109 30
3 54 22 276
3 195 268 23
3 136 237 311
3 180 254 179
3 280 32 19
3 55 29 57
3 188 94 29
3 188 217 94
3 249 225 217
3 225 251 217
3 303 134 251
3 146 21 134
3 167 168 21
3 168 120 67
3 35 282 67
3 35 50 282
3 58 4 45
3 58 59 4
3 59 14 4
3 12 36 83
3 11 290 36
3 210 44 17
3 44 16 189
3 207 355 233
3 52 48 233
3 48 82 9
3 222 171 0
3 171 28 0
3 28 170 25
3 122 169 170
3 24 221 169
3 169 288 24
3 172 66 24
3 172 147 66
3 182 79 147
3 182 145 79
3 145 310 79
3 246 43 275
3 246 281 43
3 281 358 43
3 281 279 358
3 279 108 358
3 108 109 271
3 109 293 30
3 293 186 30
3 8 54 276
3 34 22 54
3 34 23 22
3 180 179 237
3 254 114 214
3 74 280 155
3 19 32 47
3 55 57 47
3 188 110 217
3 110 249 217
3 167 120 168
3 120 35 67
3 59 87 14
3 14 61 71
3 83 71 61
3 11 89 290
3 89 17 86
3 89 11 17
3 11 88 17
3 210 5 44
3 5 16 44
3 16 207 189
3 5 355 16
3 355 207 16
3 349 165 355
3 165 233 355
3 165 321 233
3 165 349 321
3 349 163 321
3 321 52 233
3 122 288 169
3 145 357 310
3 357 26 310
3 357 315 26
3 315 242 26
3 242 31 275
3 31 232 275
3 279 109 108
3 153 30 186
3 153 276 30
3 153 8 276
3 244 268 195
3 244 105 268
3 105 136 268
3 202 237 136
3 237 202 180
3 202 254 180
3 215 114 254
3 247 62 114
3 62 95 155
3 74 32 280
3 32 55 47
3 93 188 29
3 39 303 251
3 140 134 303
3 140 146 134
3 140 219 146
3 354 282 50
3 282 354 45
3 10 83 61
3 10 12 83
3 12 70 36
3 70 11 36
3 210 17 88
3 88 5 210
3 5 349 355
3 162 163 349
3 52 321 163
3 223 48 52
3 9 171 222
3 37 28 171
3 123 122 170
3 288 172 24
3 172 127 147
3 127 182 147
3 232 246 275
3 279 229 109
3 8 197 54
3 196 23 34
3 105 1 136
3 1 202 136
3 81 254 202
3 81 215 254
3 215 247 114
3 215 216 247
3 247 95 62
3 95 74 155
3 110 102 249
3 225 212 251
3 212 39 251
3 39 140 303
3 219 21 146
3 218 167 21
3 119 50 35
3 118 92 50
3 92 354 50
3 38 45 354
3 38 58 45
3 220 59 58
3 91 87 59
3 18 14 87
3 18 61 14
3 70 88 11
3 70 85 5
3 85 162 5
3 162 349 5
3 184 163 162
3 184 52 163
3 223 104 48
3 104 82 48
3 37 171 9
3 28 238 170
3 238 123 170
3 128 127 172
3 127 141 182
3 141 145 182
3 141 357 145
3 357 141 315
3 31 242 315
3 7 229 279
3 229 293 109
3 229 186 293
3 197 34 54
3 196 195 23
3 78 247 216
3 253 55 32
3 253 29 55
3 106 93 29
3 93 110 188
3 77 249 102
3 77 225 249
3 218 21 219
3 218 135 167
3 135 120 167
3 80 119 35
3 118 50 119
3 38 220 58
3 91 59 220
3 91 15 87
3 2 12 10
3 85 70 12
3 70 5 88
3 332 367 162
3 367 184 162
3 223 52 184
3 37 9 82
3 28 37 238
3 238 208 123
3 208 139 123
3 123 139 122
3 139 288 122
3 139 126 288
3 126 172 288
3 128 204 127
3 149 173 315
3 173 31 315
3 150 232 31
3 111 246 232
3 246 289 281
3 289 279 281
3 261 186 229
3 197 196 34
3 196 244 195
3 240 105 244
3 1 81 202
3 239 216 215
3 95 32 74
3 95 253 32
3 125 29 253
3 125 106 29
3 77 212 225
3 39 177 140
3 177 219 140
3 135 80 120
3 80 35 120
3 302 92 118
3 302 296 92
3 296 354 92
3 296 38 354
3 15 18 87
3 18 6 61
3 6 10 61
3 6 99 10
3 324 162 85
3 324 332 162
3 324 46 332
3 115 367 332
3 115 184 367
3 115 223 184
3 115 194 223
3 194 69 223
3 269 234 238
3 234 208 238
3 234 328 208
3 328 139 208
3 328 126 139
3 126 128 172
3 204 141 127
3 149 315 141
3 173 150 31
3 150 111 232
3 129 246 111
3 211 279 289
3 211 7 279
3 186 133 153
3 133 8 153
3 285 197 8
3 196 240 244
3 235 105 240
3 105 239 1
3 1 215 81
3 1 239 215
3 265 95 247
3 265 253 95
3 64 102 110
3 212 177 39
3 299 296 302
3 296 220 38
3 42 18 15
3 99 2 10
3 99 85 2
3 85 12 2
3 159 194 46
3 194 332 46
3 194 115 332
3 291 104 69
3 104 223 69
3 104 37 82
3 104 238 37
3 269 330 234
3 330 328 234
3 330 126 328
3 149 142 173
3 289 246 129
3 7 261 229
3 285 8 133
3 152 197 285
3 231 196 197
3 235 239 105
3 277 78 216
3 78 265 247
3 93 64 110
3 257 212 77
3 300 80 135
3 187 119 80
3 118 299 302
3 264 76 299
3 76 296 299
3 296 76 220
3 76 75 220
3 75 91 220
3 60 15 91
3 60 41 15
3 41 42 15
3 6 18 42
3 99 324 85
3 324 73 46
3 73 159 46
3 69 194 159
3 248 104 291
3 248 13 104
3 284 330 269
3 284 126 330
3 126 284 128
3 204 117 141
3 117 142 141
3 142 149 141
3 156 211 289
3 101 133 186
3 152 231 197
3 241 201 196
3 201 240 196
3 201 235 240
3 201 200 235
3 200 239 235
3 125 253 265
3 245 93 106
3 245 64 93
3 230 102 64
3 257 77 102
3 56 300 135
3 187 132 119
3 132 118 119
3 132 131 118
3 131 299 118
3 60 91 75
3 49 99 6
3 49 324 99
3 49 73 324
3 157 159 73
3 157 291 159
3 291 69 159
3 104 256 238
3 256 269 238
3 256 255 269
3 255 284 269
3 128 103 204
3 103 116 204
3 173 174 150
3 174 111 150
3 175 129 111
3 129 143 289
3 143 156 289
3 211 261 7
3 226 186 261
3 231 241 196
3 201 278 200
3 200 277 239
3 277 216 239
3 100 265 78
3 125 245 106
3 245 203 64
3 301 219 177
3 301 218 219
3 301 90 218
3 90 292 218
3 292 135 218
3 292 56 135
3 143 80 300
3 143 227 80
3 227 187 80
3 176 132 187
3 274 264 299
3 98 49 6
3 248 291 157
3 13 256 104
3 256 307 255
3 255 128 284
3 116 117 204
3 117 130 142
3 130 312 142
3 312 173 142
3 312 174 173
3 174 175 111
3 192 211 156
3 192 261 211
3 226 101 186
3 101 285 133
3 277 200 278
3 277 100 78
3 125 265 100
3 64 203 230
3 230 257 102
3 257 177 212
3 131 274 299
3 243 264 274
3 243 76 264
3 98 6 42
3 49 236 73
3 236 157 73
3 236 183 157
3 183 248 157
3 183 13 248
3 13 320 256
3 320 144 256
3 144 307 256
3 51 255 307
3 103 128 255
3 192 156 143
3 203 201 241
3 213 278 201
3 213 277 278
3 100 245 125
3 151 300 56
3 151 143 300
3 227 176 187
3 176 131 132
3 252 243 274
3 75 76 243
3 75 286 60
3 193 42 41
3 98 42 193
3 49 33 236
3 236 258 183
3 258 259 183
3 259 13 183
3 259 320 13
3 336 144 320
3 336 307 144
3 336 51 307
3 227 143 129
3 192 191 261
3 191 226 261
3 301 101 226
3 260 285 101
3 231 203 241
3 203 213 201
3 213 100 277
3 245 100 213
3 152 257 230
3 257 301 177
3 90 191 292
3 191 56 292
3 191 151 56
3 176 174 131
3 298 75 243
3 298 286 75
3 286 41 60
3 33 49 98
3 258 320 259
3 258 336 320
3 258 51 336
3 103 255 51
3 298 117 116
3 130 154 312
3 154 174 312
3 176 227 175
3 227 129 175
3 151 192 143
3 192 151 191
3 191 90 226
3 90 301 226
3 301 260 101
3 260 113 285
3 113 152 285
3 213 203 245
3 231 152 230
3 152 113 257
3 113 301 257
3 113 260 301
3 230 203 231
3 175 174 176
3 154 274 174
3 274 131 174
3 209 41 286
3 41 209 193
3 209 33 193
3 33 98 193
3 51 236 33
3 236 51 258
3 33 103 51
3 33 209 103
3 286 116 103
3 286 298 116
3 243 130 298
3 130 117 298
3 243 252 130
3 252 154 130
3 252 274 154
3 286 103 209
3 268 136 311
3 89 86 290
3 28 25 0
3 43 242 275
3 43 271 242
3 43 108 271
3 114 62 214
